<svg width="21" height="21" viewBox="0 0 21 21" fill="none" xmlns="http://www.w3.org/2000/svg">
<path fill-rule="evenodd" clip-rule="evenodd" d="M3 0H18C19.65 0 21 1.34998 21 2.99997V17.9998C21 19.6498 19.65 20.9998 18 20.9998H3C1.35 20.9998 0 19.6498 0 17.9998V2.99997C0 1.34998 1.35 0 3 0ZM14 10.5001C14 8.57006 12.43 7 10.5 7C8.57 7 7 8.57006 7 10.5001C7 12.4302 8.57 14.0002 10.5 14.0002C12.43 14.0002 14 12.4302 14 10.5001ZM3 18V9H4.181C4.0626 9.49127 4.00186 9.99467 4 10.5C4 14.0899 6.91016 17 10.5 17C14.0899 17 17 14.0899 17 10.5C16.9987 9.99464 16.9379 9.49118 16.819 9H18V18H3ZM14 7H18V2.99976H14V7Z" fill="white"/>
</svg>
