<svg width="27" height="15" viewBox="0 0 27 15" fill="none" xmlns="http://www.w3.org/2000/svg">
<path d="M16.138 11.5102C17.094 11.2012 18.318 13.5502 19.621 14.4492C20.599 15.1302 21.348 14.9832 21.348 14.9832L24.821 14.9332C24.821 14.9332 26.636 14.8212 25.778 13.3792C25.707 13.2592 25.275 12.3102 23.193 10.3572C21.016 8.31425 21.311 8.64524 23.932 5.11326C25.529 2.96027 26.168 1.64527 25.968 1.08528C25.776 0.546279 24.603 0.686279 24.603 0.686279L20.69 0.713278C20.309 0.714278 19.986 0.832278 19.839 1.22828C19.836 1.23228 19.218 2.89427 18.394 4.30726C16.653 7.29625 15.958 7.45525 15.67 7.26825C15.009 6.83525 15.176 5.53126 15.176 4.60426C15.176 1.70727 15.608 0.499279 14.33 0.187281C13.903 0.0832812 13.591 0.0152815 12.502 0.00528153C11.11 -0.0157184 9.92797 0.00528154 9.25797 0.33428C8.81297 0.557279 8.47197 1.04628 8.67897 1.07428C8.93897 1.10928 9.52197 1.23428 9.83397 1.66027C10.235 2.21227 10.223 3.44927 10.223 3.44927C10.223 3.44927 10.452 6.86025 9.68297 7.28325C9.15497 7.57325 8.43297 6.98125 6.87997 4.26726C6.08697 2.87927 5.48797 1.34528 5.48797 1.34528C5.48797 1.34528 5.37197 1.06028 5.16197 0.904278C4.91197 0.719278 4.56197 0.660279 4.56197 0.660279L0.84797 0.684278C0.84797 0.684278 0.28997 0.700278 0.0849697 0.946277C-0.0970303 1.16428 0.0699697 1.61427 0.0699697 1.61427C0.0699697 1.61427 2.97897 8.49524 6.27297 11.9612C9.29297 15.1432 12.725 14.9322 12.725 14.9322H14.28C14.28 14.9322 14.749 14.8782 14.989 14.6202C15.213 14.3802 15.203 13.9292 15.203 13.9292C15.203 13.9292 15.172 11.8202 16.138 11.5102Z" fill="white"/>
</svg>
